<?xml version="1.0" encoding="UTF-8"?>
<svg width="32" height="32" viewBox="0 0 32 32" xmlns="http://www.w3.org/2000/svg">
  <rect width="32" height="32" rx="8" fill="#25D366"/>
  <path d="M16 8c-4.42 0-8 3.4-8 7.6 0 1.5 0.48 2.9 1.33 4.07L8 24l4.47-1.17c1.1 0.6 2.36 0.94 3.53 0.94 4.42 0 8-3.4 8-7.6S20.42 8 16 8Zm3.93 9.09c-0.17 0.5-0.93 0.93-1.3 0.99-0.34 0.05-0.79 0.09-1.27-0.08-0.29-0.09-0.66-0.21-1.13-0.41-1.99-0.86-3.29-2.87-3.39-3.01-0.1-0.14-0.8-1.07-0.8-2.05 0-0.98 0.51-1.47 0.69-1.67 0.17-0.2 0.43-0.29 0.69-0.29 0.17 0 0.34 0.01 0.49 0.02 0.16 0.01 0.37-0.06 0.57 0.43 0.21 0.5 0.72 1.73 0.78 1.85 0.06 0.12 0.1 0.26 0.02 0.42-0.08 0.17-0.12 0.26-0.24 0.4-0.12 0.14-0.25 0.31-0.36 0.42-0.12 0.12-0.24 0.25-0.1 0.48 0.14 0.23 0.61 1 1.31 1.62 0.9 0.79 1.65 1.04 1.88 1.16 0.24 0.12 0.37 0.1 0.51-0.06 0.14-0.17 0.59-0.68 0.75-0.91 0.16-0.23 0.32-0.19 0.54-0.11 0.21 0.07 1.35 0.63 1.58 0.75 0.23 0.12 0.38 0.17 0.43 0.26 0.06 0.09 0.06 0.53-0.11 1.03Z" fill="#fff"/>
</svg>
