<?xml version="1.0" encoding="UTF-8"?>
<svg width="32" height="32" viewBox="0 0 32 32" xmlns="http://www.w3.org/2000/svg">
  <linearGradient id="instaGradient" x1="0%" y1="0%" x2="100%" y2="100%">
    <stop offset="0%" stop-color="#f58529"/>
    <stop offset="25%" stop-color="#dd2a7b"/>
    <stop offset="50%" stop-color="#8134af"/>
    <stop offset="75%" stop-color="#515bd4"/>
    <stop offset="100%" stop-color="#515bd4"/>
  </linearGradient>
  <rect width="32" height="32" rx="8" fill="url(#instaGradient)"/>
  <path d="M21.6 9H10.4C9.07 9 8 10.07 8 11.4v10.2C8 22.93 9.07 24 10.4 24h11.2c1.33 0 2.4-1.07 2.4-2.4V11.4C24 10.07 22.93 9 21.6 9Zm-5.6 11.6a3.6 3.6 0 1 1 0-7.2 3.6 3.6 0 0 1 0 7.2Zm4-6.6a0.8 0.8 0 1 1 0-1.6 0.8 0.8 0 0 1 0 1.6Z" fill="#fff"/>
  <circle cx="16" cy="16" r="2.2" fill="#fff"/>
</svg>
